<?xml version="1.0" encoding="utf-8"?>
<!-- Generator: Adobe Illustrator 25.4.1, SVG Export Plug-In . SVG Version: 6.00 Build 0)  -->
<svg version="1.1" id="Layer_1" xmlns="http://www.w3.org/2000/svg" x="0px"
     y="0px"
     width="48px" height="48px" viewBox="0 0 48 48" style="enable-background:new 0 0 48 48;" xml:space="preserve">
<style type="text/css">
	.st0{fill:#C6D0DC;}
</style>
    <path class="st0" d="M11,19.3h19.5v-6.8c0-1.8-0.6-3.3-1.9-4.6C27.3,6.6,25.8,6,24,6s-3.3,0.6-4.6,1.9c-1.3,1.3-1.9,2.8-1.9,4.6h-3
	c0-2.6,0.9-4.9,2.8-6.7C19.1,3.9,21.4,3,24,3s4.9,0.9,6.7,2.8c1.9,1.9,2.8,4.1,2.8,6.7v6.8H37c0.8,0,1.5,0.3,2.1,0.9
	s0.9,1.3,0.9,2.1V42c0,0.8-0.3,1.5-0.9,2.1C38.5,44.7,37.8,45,37,45H11c-0.8,0-1.5-0.3-2.1-0.9C8.3,43.5,8,42.8,8,42V22.3
	c0-0.8,0.3-1.5,0.9-2.1C9.5,19.6,10.2,19.3,11,19.3z M11,42h26V22.3H11V42z M24,35c1.1,0,2-0.4,2.7-1.1s1.1-1.6,1.1-2.6
	c0-1-0.4-1.9-1.1-2.7S25,27.4,24,27.4s-2,0.4-2.7,1.2s-1.1,1.7-1.1,2.8c0,1,0.4,1.9,1.1,2.6C22,34.6,22.9,35,24,35z M11,42V22.3V42z
	"/>
</svg>
